<svg width="82" height="85" viewBox="0 0 82 85" fill="none" xmlns="http://www.w3.org/2000/svg">
<g clip-path="url(#clip0_96_395)">
<path d="M62.9893 0H19.0107C8.51137 0 0 8.82276 0 19.7062V65.2938C0 76.1772 8.51137 85 19.0107 85H62.9893C73.4886 85 82 76.1772 82 65.2938V19.7062C82 8.82276 73.4886 0 62.9893 0Z" fill="#42A3CD"/>
<path d="M41 46.349L64.9976 25.0571C64.5022 24.6344 63.8991 24.376 63.2488 24.376H18.7546C18.1009 24.376 17.5012 24.6309 17.0059 25.0571L41.0034 46.349H41Z" fill="white"/>
<path d="M66.1667 57.8926C66.224 57.6167 66.2644 57.3338 66.2644 57.0369V28.4102L51.8936 41.1623L66.1667 57.8961V57.8926Z" fill="white"/>
<path d="M49.4237 43.3521L41 50.8266L32.5763 43.3521L17.9763 60.4876C18.2256 60.5679 18.4851 60.6238 18.7546 60.6238H63.2488C63.5183 60.6238 63.7778 60.5679 64.0271 60.4876L49.4271 43.3521H49.4237Z" fill="white"/>
<path d="M30.1064 41.1588L15.7355 28.4067V57.0335C15.7355 57.3303 15.776 57.6133 15.8333 57.8892L30.1064 41.1553V41.1588Z" fill="white"/>
</g>
<defs>
<clipPath id="clip0_96_395">
<rect width="82" height="85" fill="white"/>
</clipPath>
</defs>
</svg>
