<svg width="126" height="119" viewBox="0 0 126 119" fill="none" xmlns="http://www.w3.org/2000/svg">
<g clip-path="url(#clip0_89_147)">
<path fill-rule="evenodd" clip-rule="evenodd" d="M27.0421 0H98.9579C113.831 0 126 11.4928 126 25.5398V93.4602C126 107.507 113.831 119 98.9579 119H27.0421C12.1688 119 0 107.507 0 93.4602V25.5398C0 11.4928 12.1688 0 27.0421 0Z" fill="black"/>
<path fill-rule="evenodd" clip-rule="evenodd" d="M47.9909 103.113C55.589 103.118 63 96.7989 63 89.6059V74.0022C59.9802 74.0022 47.5012 74.0022 47.0629 74.0022C39.3135 74.0022 32.1511 80.3502 32.1588 88.761C32.1486 97.0362 39.4109 103.108 47.9909 103.113Z" fill="#0ACF83"/>
<path fill-rule="evenodd" clip-rule="evenodd" d="M78.4219 44.959C86.9378 44.959 93.8438 51.4789 93.8438 59.5241C93.8438 67.5693 86.9403 74.0892 78.4219 74.0892C69.9034 74.0892 63 67.5693 63 59.5241C63 51.4789 69.9034 44.959 78.4219 44.959Z" fill="#1ABCFE"/>
<path fill-rule="evenodd" clip-rule="evenodd" d="M46.3348 74.1306L63.0026 74.1402V45.0125C59.9828 45.0125 47.5038 45.0125 47.0629 45.0125C39.3135 45.0125 32.1511 51.3605 32.1588 59.7712C32.1511 67.3685 39.4596 74.1306 46.3348 74.1306Z" fill="#A259FF"/>
<path fill-rule="evenodd" clip-rule="evenodd" d="M79.5216 45.0051L62.8539 45.0147V15.887C65.8737 15.887 78.3527 15.887 78.7936 15.887C86.543 15.887 93.7053 22.235 93.6976 30.6458C93.7053 38.243 86.3969 45.0051 79.5216 45.0051Z" fill="#FF7262"/>
<path fill-rule="evenodd" clip-rule="evenodd" d="M46.3348 45.0051L63.0026 45.0147V15.887C59.9828 15.887 47.5038 15.887 47.0629 15.887C39.3135 15.887 32.1511 22.235 32.1588 30.6458C32.1511 38.243 39.4596 45.0051 46.3348 45.0051Z" fill="#F24E1E"/>
</g>
<defs>
<clipPath id="clip0_89_147">
<rect width="126" height="119" fill="white"/>
</clipPath>
</defs>
</svg>
