<svg width="125" height="119" viewBox="0 0 125 119" fill="none" xmlns="http://www.w3.org/2000/svg">
<path d="M19.444 0H104.989C115.729 0 124.433 8.32404 124.433 18.595V100.405C124.433 110.671 115.729 119 104.989 119H19.444C8.70928 119 0 110.676 0 100.405V18.595C0 8.32404 8.70408 0 19.444 0Z" fill="#330000"/>
<path d="M60.6689 72.4433H41.6768L37.7973 84.5767C37.6883 85.0088 37.2728 85.3068 36.8106 85.282H27.1873C26.642 85.282 26.4446 84.9939 26.6108 84.4178L43.0115 39.1372C43.1777 38.6654 43.3386 38.129 43.5048 37.523C43.7333 36.644 43.8424 35.74 43.8372 34.8311C43.7957 34.5629 43.9878 34.3196 44.2683 34.2798C44.315 34.2749 44.3617 34.2749 44.4137 34.2798H57.4854C57.8697 34.2798 58.0878 34.4139 58.1449 34.6722L76.8566 84.4923C77.0176 85.0187 76.8566 85.282 76.3633 85.277H65.6753C65.2962 85.3167 64.9431 85.0833 64.8496 84.7257L60.6741 72.4383L60.6689 72.4433ZM44.5331 64.0745H58.4462C58.119 63.0266 56.9868 60.6029 56.5506 59.2917C56.1143 57.9805 55.5119 56.9375 55.0185 55.4475C54.5252 53.9526 54.0318 52.4626 53.5384 50.9677C53.045 49.4727 52.5932 48.0324 52.1778 46.6417C51.7623 45.2511 51.3988 43.9796 51.0664 42.8324H50.9833C50.5211 44.9581 49.9446 47.054 49.2539 49.1201C48.4853 51.4792 47.7063 53.888 46.9117 56.3515C46.1223 58.8149 45.3017 61.9786 44.5331 64.0745Z" fill="#FF9A00"/>
<path d="M87.9756 42.4843C86.2774 42.5489 84.6363 41.9181 83.4522 40.7559C82.2733 39.5441 81.6553 37.9299 81.7228 36.276C81.6605 34.6371 82.3305 33.0477 83.5717 31.9104C84.7921 30.7879 86.4384 30.177 88.1314 30.2217C89.8608 30.1323 91.5487 30.7432 92.7743 31.9104C93.922 33.0924 94.5245 34.6619 94.4569 36.276C94.5296 37.9349 93.8909 39.554 92.6912 40.7559C91.4396 41.938 89.7258 42.5638 87.9704 42.4843M82.6524 84.4969V48.5485C82.6524 48.0767 82.8706 47.8433 83.312 47.8433H92.6497C93.0859 47.8433 93.3092 48.0817 93.3092 48.5485V84.4969C93.3092 85.0233 93.0911 85.2865 92.6497 85.2816H83.3951C82.9017 85.2816 82.6524 85.0184 82.6576 84.4969" fill="#FF9A00"/>
</svg>
