<svg width="126" height="118" viewBox="0 0 126 118" fill="none" xmlns="http://www.w3.org/2000/svg">
<g clip-path="url(#clip0_89_142)">
<path d="M19.6888 0H106.311C117.186 0 126 8.25409 126 18.4387V99.5613C126 109.741 117.186 118 106.311 118H19.6888C8.81895 118 0 109.746 0 99.5613V18.4387C0 8.25409 8.81369 0 19.6888 0Z" fill="#49021F"/>
<path d="M44.7574 34.9124V83.7721C44.7574 84.2941 44.5049 84.5551 44.0053 84.5502H34.4817C34.0347 84.5502 33.8191 84.2892 33.8191 83.7721V34.9124C33.8191 34.4987 34.0663 34.2869 34.5659 34.2869H44.0895C44.4155 34.2475 44.71 34.4593 44.7574 34.7597C44.7626 34.809 44.7626 34.8632 44.7574 34.9124Z" fill="#FF3366"/>
<path d="M75.6736 85.6091C71.84 85.6633 68.0432 84.9197 64.5566 83.4274C61.3119 82.0189 58.5984 79.7239 56.7736 76.8379C54.77 73.4693 53.7919 69.6525 53.9444 65.8013C53.9129 62.2209 54.891 58.6996 56.7736 55.5871C58.7141 52.4155 61.5696 49.825 65.0141 48.1013C69.0423 46.1363 73.5438 45.171 78.0821 45.299C78.3609 45.299 78.7184 45.3138 79.1654 45.3384C79.6072 45.3631 80.5801 45.4025 81.1953 45.4566V30.6968C81.1953 30.3324 81.3636 30.1501 81.6949 30.1501H91.35C91.5919 30.1157 91.8128 30.2782 91.8496 30.4998C91.8548 30.5392 91.8548 30.5786 91.8496 30.6131V76.0894C91.8496 76.9758 91.8917 77.9362 91.9758 78.9753C92.0599 80.0145 92.1283 80.9502 92.1809 81.7825C92.2019 82.1125 92.0021 82.4227 91.6813 82.5606C89.1098 83.6146 86.4225 84.3976 83.6617 84.9C81.027 85.358 78.3503 85.5944 75.6684 85.6042M81.1953 75.9416V54.6563C80.5958 54.543 79.9858 54.4692 79.3758 54.4248C78.8079 54.3707 78.2346 54.346 77.6667 54.346C75.6473 54.3263 73.649 54.7548 71.84 55.592C67.8696 57.365 65.4611 61.2261 65.7609 65.3384C65.7188 67.0374 66.0185 68.7267 66.6338 70.3273C67.1387 71.6126 67.9327 72.7848 68.9634 73.7599C69.9521 74.6562 71.1511 75.3211 72.4605 75.7101C73.8436 76.1288 75.295 76.3405 76.7464 76.3356C77.5247 76.3356 78.2452 76.311 78.913 76.2568C79.6808 76.2125 80.4433 76.1091 81.1901 75.9465L81.1953 75.9416Z" fill="#FF3366"/>
</g>
<defs>
<clipPath id="clip0_89_142">
<rect width="126" height="118" fill="white"/>
</clipPath>
</defs>
</svg>
