<svg width="82" height="85" viewBox="0 0 82 85" fill="none" xmlns="http://www.w3.org/2000/svg">
<g clip-path="url(#clip0_96_420)">
<path d="M62.7871 0H19.2129C8.60189 0 0 8.91659 0 19.9158V65.0842C0 76.0834 8.60189 85 19.2129 85H62.7871C73.3981 85 82 76.0834 82 65.0842V19.9158C82 8.91659 73.3981 0 62.7871 0Z" fill="url(#paint0_linear_96_420)"/>
<path d="M53.5615 10.9673H27.8792C18.1953 10.9673 10.3444 19.1054 10.3444 29.1436V55.762C10.3444 65.8002 18.1953 73.9384 27.8792 73.9384H53.5615C63.2454 73.9384 71.0963 65.8002 71.0963 55.762V29.1436C71.0963 19.1054 63.2454 10.9673 53.5615 10.9673ZM65.4996 56.2301C65.4996 62.8943 60.287 68.2941 53.858 68.2941H27.576C21.147 68.2941 15.9377 62.8908 15.9377 56.2301V28.9865C15.9377 22.3223 21.1503 16.9225 27.576 16.9225H53.858C60.287 16.9225 65.4996 22.3258 65.4996 28.9865V56.2301Z" fill="white"/>
<path d="M40.7203 26.2725C32.0169 26.2725 24.9578 33.5863 24.9578 42.6116C24.9578 51.6369 32.0169 58.9508 40.7203 58.9508C49.4237 58.9508 56.4828 51.6369 56.4828 42.6116C56.4828 33.5863 49.4271 26.2725 40.7203 26.2725ZM40.7203 53.2017C35.0764 53.2017 30.504 48.4585 30.504 42.6116C30.504 36.7647 35.0798 32.0216 40.7203 32.0216C46.3608 32.0216 50.94 36.7647 50.94 42.6116C50.94 48.4585 46.3642 53.2017 40.7203 53.2017Z" fill="white"/>
<path d="M57.0084 21.8438C54.98 21.8438 53.3357 23.5482 53.3357 25.6509C53.3357 27.7535 54.98 29.458 57.0084 29.458C59.0369 29.458 60.6812 27.7535 60.6812 25.6509C60.6812 23.5482 59.0369 21.8438 57.0084 21.8438Z" fill="white"/>
</g>
<defs>
<linearGradient id="paint0_linear_96_420" x1="65.4794" y1="-1.45299" x2="13.8347" y2="84.8456" gradientUnits="userSpaceOnUse">
<stop stop-color="#4845A2"/>
<stop offset="0.19" stop-color="#8744A1"/>
<stop offset="0.3" stop-color="#A844A1"/>
<stop offset="0.35" stop-color="#AB419A"/>
<stop offset="0.42" stop-color="#B43B87"/>
<stop offset="0.51" stop-color="#C23169"/>
<stop offset="0.6" stop-color="#D7243E"/>
<stop offset="0.88" stop-color="#F9A326"/>
<stop offset="1" stop-color="#F9DD26"/>
</linearGradient>
<clipPath id="clip0_96_420">
<rect width="82" height="85" fill="white"/>
</clipPath>
</defs>
</svg>
