<svg width="1238" height="505" viewBox="0 0 1238 505" fill="none" xmlns="http://www.w3.org/2000/svg">
<path d="M1210.72 447.3C1210.52 423.813 1185.29 405.373 1185.29 387.128C1185.29 374.511 1197.32 365 1211.3 365C1225.27 365 1237.31 374.511 1237.31 387.128C1237.31 405.373 1212.07 423.813 1211.88 447.3H1210.72ZM1211.3 504.754C1198.49 504.754 1188.2 494.467 1188.2 481.656C1188.2 468.845 1198.49 458.558 1211.3 458.558C1224.11 458.558 1234.4 468.845 1234.4 481.656C1234.4 494.467 1224.11 504.754 1211.3 504.754Z" fill="#F24E1E"/>
<path d="M1032.01 502.814C1035.11 495.244 1035.5 484.374 1035.5 466.516V403.239C1035.5 384.799 1035.11 374.511 1032.01 366.941H1097.23C1146.53 366.941 1166.72 384.993 1166.72 412.362C1166.72 430.413 1157.59 443.224 1143.81 450.794L1155.26 470.787C1165.36 488.45 1172.15 496.02 1178.56 502.814H1125.95L1103.05 460.111H1090.82C1083.06 460.111 1080.92 463.993 1080.92 470.981C1080.92 486.121 1081.5 495.826 1084.42 502.814H1032.01ZM1095.67 456.423C1115.86 456.423 1119.55 444 1119.55 426.725C1119.55 395.28 1107.71 371.018 1091.01 371.018C1083.44 371.018 1081.12 375.676 1081.12 382.664V444.389C1081.12 455.453 1089.27 456.423 1095.67 456.423Z" fill="#F24E1E"/>
<path d="M885.482 503.784C888.588 496.214 888.976 484.374 888.976 466.516V403.239C888.976 385.381 888.588 374.511 885.482 366.941H1014.37C1012.43 381.305 994.568 421.484 982.146 432.742C980.011 434.683 977.875 435.072 972.829 434.295L934.59 428.86V478.163C934.59 493.303 937.502 496.797 948.372 496.797C970.111 496.797 994.374 482.239 1017.08 450.6L1018.44 451.57L1007.19 502.814C977.487 502.814 940.802 502.62 914.598 502.62C901.981 502.62 893.441 503.202 885.482 503.784ZM938.861 372.182H934.59V423.814H982.922C986.998 423.814 988.357 421.29 988.357 417.796C988.357 399.745 976.129 372.182 938.861 372.182Z" fill="#F24E1E"/>
<path d="M728.342 502.814C731.448 495.244 731.836 484.374 731.836 466.516V403.239C731.836 385.381 731.448 374.511 728.342 366.941H780.944C777.838 374.511 777.45 385.381 777.45 403.239V433.519C777.45 443.806 783.661 448.659 793.561 446.136L808.313 442.253C816.659 440.118 820.929 434.683 820.929 426.143V403.239C820.929 385.381 820.541 374.511 817.435 366.941H870.037C866.932 374.511 866.544 385.381 866.544 403.239V466.516C866.544 484.374 866.932 495.244 870.037 502.814H817.435C820.541 495.244 820.929 484.374 820.929 466.516V459.529C820.929 449.241 814.718 444.389 804.819 446.912L790.067 450.794C781.72 452.929 777.45 457.976 777.45 466.516C777.45 484.374 777.838 495.244 780.944 502.814H728.342Z" fill="#F24E1E"/>
<path d="M623.241 502.814C628.288 495.244 628.676 484.374 628.676 466.516V370.823L582.674 373.541V366.941H716.605V373.541L674.29 370.823V466.516C674.29 484.374 674.679 495.244 679.725 502.814H623.241Z" fill="#F24E1E"/>
<path d="M442.874 503.784C445.979 496.214 446.368 484.374 446.368 466.516V403.239C446.368 385.381 445.979 374.511 442.874 366.941H571.758C569.817 381.305 551.96 421.484 539.537 432.742C537.402 434.683 535.267 435.072 530.22 434.295L491.982 428.86V478.163C491.982 493.303 494.893 496.797 505.763 496.797C527.503 496.797 551.766 482.239 574.476 450.6L575.834 451.57L564.576 502.814C534.879 502.814 498.193 502.62 471.989 502.62C459.372 502.62 450.832 503.202 442.874 503.784ZM496.252 372.182H491.982V423.814H540.314C544.39 423.814 545.748 421.29 545.748 417.796C545.748 399.745 533.52 372.182 496.252 372.182Z" fill="#F24E1E"/>
<path d="M363.725 504.754C320.44 504.754 294.43 474.862 294.43 434.683C294.43 394.698 320.246 365.971 360.425 365.971C376.73 365.971 387.794 370.629 394.005 370.629C397.499 370.629 399.44 369.27 399.44 365C414.774 365 424.868 377.423 424.868 392.951C424.868 406.344 417.298 419.349 398.47 419.349C362.172 419.349 371.683 371.6 351.108 371.6C345.868 371.6 338.298 374.511 338.298 404.403C338.298 454.093 359.067 497.573 378.671 497.573C383.524 497.573 384.688 494.855 384.688 489.032C384.688 480.686 382.165 447.3 367.607 443.806L428.361 436.43C425.45 439.73 425.062 450.017 425.062 461.081V487.285C425.062 493.885 425.256 499.125 425.644 502.813L424.868 503.202C423.703 501.261 421.18 498.543 412.057 498.543C398.275 498.543 383.524 504.754 363.725 504.754Z" fill="#F24E1E"/>
<path d="M207.994 504.754C166.455 504.754 135.205 478.356 135.205 434.877C135.205 391.398 166.455 365 207.994 365C249.532 365 280.782 391.398 280.782 434.877C280.782 478.356 249.532 504.754 207.994 504.754ZM221.969 499.708C229.539 499.708 232.839 491.944 232.839 476.221C232.839 442.641 217.116 370.047 194.212 370.047C186.642 370.047 183.342 377.811 183.342 393.533C183.342 427.113 199.065 499.708 221.969 499.708Z" fill="#F24E1E"/>
<path d="M40.7417 502.814C45.7884 495.244 46.1766 484.374 46.1766 466.516V370.823L0.174133 373.541V366.941H134.105V373.541L91.7909 370.823V466.516C91.7909 484.374 92.1791 495.244 97.2258 502.814H40.7417Z" fill="#F24E1E"/>
<path d="M534.637 295.111C537.659 287.744 538.037 277.167 538.037 259.789V198.211C538.037 180.833 537.659 170.256 534.637 162.889H589.603C582.803 170.444 582.426 184.611 582.426 207.656V229.944C582.426 236.556 585.826 239.956 597.726 235.611L626.437 225.033C642.87 218.989 649.292 215.589 628.703 209.733C614.348 205.578 603.203 196.7 603.203 183.667C603.203 170.633 614.348 161 630.403 161C650.426 161 661.381 175.922 661.381 192.167C661.381 205.578 654.392 220.689 631.726 228.244L670.637 295.111H619.07L595.837 249.211C593.381 244.489 591.681 242.222 588.281 242.222C583.937 242.222 582.426 245.622 582.426 250.911C582.426 273.2 582.803 287.933 589.603 295.111H534.637Z" fill="#F24E1E"/>
<path d="M382.64 295.111C385.662 287.745 386.04 277.167 386.04 259.789V198.211C386.04 180.267 385.662 170.256 382.64 162.889H446.107C494.085 162.889 513.729 180.456 513.729 207.089C513.729 224.656 504.851 237.123 491.44 244.489L502.585 263.945C512.407 281.134 519.018 288.5 525.251 295.111H474.062L451.774 253.556H439.874C432.318 253.556 430.24 257.334 430.24 264.134C430.24 278.867 430.807 288.311 433.64 295.111H382.64ZM444.596 249.967C464.24 249.967 467.829 237.878 467.829 221.067C467.829 190.467 456.307 166.856 440.062 166.856C432.696 166.856 430.429 171.389 430.429 178.189V238.256C430.429 249.023 438.362 249.967 444.596 249.967Z" fill="#F24E1E"/>
<path d="M297.581 297C257.159 297 226.748 271.311 226.748 229C226.748 186.689 257.159 161 297.581 161C338.003 161 368.414 186.689 368.414 229C368.414 271.311 338.003 297 297.581 297ZM311.181 292.089C318.548 292.089 321.759 284.533 321.759 269.233C321.759 236.556 306.459 165.911 284.17 165.911C276.803 165.911 273.592 173.467 273.592 188.767C273.592 221.444 288.892 292.089 311.181 292.089Z" fill="#F24E1E"/>
<path d="M41.1778 297L13.6 205.389C7.55555 185.556 4.15556 174.6 0 170.256L49.8666 161.756L82.7333 269.611C84.4333 275.467 86.8889 276.978 90.1 276.978C94.6333 276.978 100.678 274.144 106.533 269.044L87.2666 205.389C81.2222 185.556 77.8222 174.6 73.6667 170.256L123.533 161.756L156.4 269.611C158.1 275.467 160.556 276.978 163.767 276.978C175.1 276.978 196.444 258.278 196.444 236.556C196.444 205.956 154.133 213.133 154.133 184.044C154.133 168.744 165.656 161 179.822 161C202.867 161 213.444 181.778 213.444 207.089C213.444 250.156 183.222 291.333 114.844 297L107.856 273.578C91.9889 286.044 69.8889 294.544 41.1778 297Z" fill="#F24E1E"/>
<path d="M378.416 105.729C355.654 105.729 331.131 97.9466 331.131 81.4998C331.131 72.3953 338.767 68.2836 346.403 68.2836C367.696 68.2836 377.241 99.5619 396.331 99.5619C401.764 99.5619 404.114 97.0656 404.114 93.6881C404.114 74.8917 332.159 65.4936 332.159 30.1035C332.159 12.7756 349.34 0 379.003 0C402.499 0 422.029 8.07656 422.029 20.8522C422.029 31.8657 402.939 37.8864 389.576 39.208C408.372 48.8999 427.316 60.2071 427.316 76.2133C427.316 91.9259 408.813 105.729 378.416 105.729ZM353.011 12.482C353.011 20.9991 367.99 28.3414 384.583 36.7116C407.198 36.5648 382.234 6.16756 361.675 6.16756C355.361 6.16756 353.011 9.10449 353.011 12.482Z" fill="#F24E1E"/>
<path d="M256.815 104.261C260.633 98.5343 260.927 90.3109 260.927 76.801V4.40569L226.124 6.46154V1.46875H327.448V6.46154L295.436 4.40569V76.801C295.436 90.3109 295.73 98.5343 299.548 104.261H256.815Z" fill="#F24E1E"/>
<path d="M120.361 104.996C122.71 99.2685 123.004 90.3109 123.004 76.801V28.9291C123.004 15.4192 122.71 7.19577 120.361 1.46875H217.867C216.398 12.3354 202.888 42.7326 193.49 51.2497C191.875 52.7182 190.259 53.0119 186.441 52.4245L157.513 48.3128V85.6118C157.513 97.0658 159.715 99.7091 167.939 99.7091C184.386 99.7091 202.741 88.6956 219.922 64.7596L220.95 65.4938L212.433 104.261C189.966 104.261 162.212 104.114 142.388 104.114C132.842 104.114 126.381 104.555 120.361 104.996ZM160.743 5.43361H157.513V44.4948H194.078C197.161 44.4948 198.189 42.5858 198.189 39.9425C198.189 26.2858 188.938 5.43361 160.743 5.43361Z" fill="#F24E1E"/>
<path d="M13.9541 104.261C16.3037 98.5343 16.5974 90.3109 16.5974 76.801V28.9291C16.5974 15.4192 16.3037 7.19577 13.9541 1.46875H56.6865C51.4 7.34261 51.1063 18.3561 51.1063 36.2714V76.801C51.1063 90.0172 51.1063 100.59 61.5324 100.59C72.8396 100.59 87.5242 86.9334 108.67 50.2218L107.202 104.261H13.9541Z" fill="#F24E1E"/>
</svg>
