<svg width="82" height="85" viewBox="0 0 82 85" fill="none" xmlns="http://www.w3.org/2000/svg">
<g clip-path="url(#clip0_96_407)">
<path d="M63.1814 0H18.8186C8.42538 0 0 8.73363 0 19.5071V65.4929C0 76.2664 8.42538 85 18.8186 85H63.1814C73.5746 85 82 76.2664 82 65.4929V19.5071C82 8.73363 73.5746 0 63.1814 0Z" fill="#0E76B3"/>
<path d="M14.3102 31.6586H25.4464V68.7972H14.3102V31.6586ZM19.88 13.1958C23.4382 13.1958 26.3326 16.1961 26.3326 19.8914C26.3326 23.5868 23.4382 26.5801 19.88 26.5801C16.3218 26.5801 13.4274 23.5868 13.4274 19.8914C13.4274 16.1961 16.3117 13.1958 19.88 13.1958Z" fill="white"/>
<path d="M32.428 31.6583H43.1093V36.7402H43.2609C44.7469 33.8168 48.3792 30.7432 53.794 30.7432C65.0717 30.7432 67.154 38.4307 67.154 48.4305V68.8004H56.0212V50.7393C56.0212 46.4327 55.9504 40.8897 50.2324 40.8897C44.5144 40.8897 43.5541 45.5874 43.5541 50.4284V68.7969H32.4213V31.6583H32.428Z" fill="white"/>
</g>
<defs>
<clipPath id="clip0_96_407">
<rect width="82" height="85" fill="white"/>
</clipPath>
</defs>
</svg>
