<svg width="127" height="119" viewBox="0 0 127 119" fill="none" xmlns="http://www.w3.org/2000/svg">
<path d="M19.7526 0H106.656C117.566 0 126.408 8.32404 126.408 18.595V100.405C126.408 110.671 117.566 119 106.656 119H19.7526C8.84752 119 0 110.676 0 100.405V18.595C0 8.32404 8.84224 0 19.7526 0Z" fill="#001E36"/>
<path d="M28.2202 84.5815V34.3393C28.2202 33.9718 28.3891 33.788 28.7214 33.788C29.6131 33.788 30.6682 33.7731 31.8975 33.7483C33.1215 33.7234 34.4457 33.6986 35.8649 33.6688C37.2841 33.644 38.7877 33.6191 40.3757 33.5893C41.9637 33.5645 43.5359 33.5496 45.0923 33.5496C48.722 33.4602 52.3359 33.9668 55.781 35.0446C58.3925 35.879 60.7772 37.2448 62.7556 39.0526C64.4333 40.6221 65.7312 42.5094 66.5542 44.5954C67.335 46.6267 67.7307 48.7673 67.7202 50.9228C67.8784 54.6031 66.7969 58.2337 64.6285 61.303C62.5552 64.0396 59.6429 66.1107 56.2769 67.2381C52.5311 68.5096 48.569 69.1354 44.5858 69.0857C43.3618 69.0857 42.4966 69.0708 42.0006 69.046C41.4994 69.0212 40.7503 69.0062 39.7479 69.0062V84.4921C39.8006 84.8348 39.5474 85.1527 39.1834 85.1974C39.12 85.2073 39.0567 85.2073 38.9934 85.1974H28.8006C28.4102 85.1974 28.215 84.9888 28.215 84.5666M39.7479 43.2246V59.5002C40.4706 59.5548 41.1407 59.5796 41.7527 59.5796H44.5066C46.5273 59.6094 48.5426 59.3412 50.4788 58.7949C52.1354 58.333 53.6127 57.434 54.7417 56.2023C55.9076 54.762 56.4827 52.979 56.3666 51.1712C56.4088 49.6514 55.9921 48.1515 55.1532 46.8452C54.2721 45.5887 53.006 44.6152 51.5182 44.054C49.5767 43.3438 47.5033 43.006 45.4194 43.0706C44.0846 43.0706 42.8975 43.0855 41.8687 43.1103C40.84 43.1352 40.1277 43.1749 39.7373 43.2295" fill="#31A8FF"/>
<path d="M100.235 56.3564C98.2987 55.6065 96.2781 55.0552 94.2152 54.7075C92.3107 54.2953 90.3639 54.0867 88.4119 54.0767C87.3567 54.0519 86.3015 54.1711 85.278 54.4294C84.6291 54.5635 84.0541 54.9111 83.6531 55.4078C83.3788 55.8051 83.2363 56.272 83.2363 56.7438C83.2521 57.2057 83.4262 57.6477 83.7375 58.0004C84.2229 58.5417 84.8243 58.9838 85.4944 59.3016C86.6867 59.9026 87.9107 60.4439 89.1716 60.9108C91.973 61.7949 94.6531 62.9968 97.1486 64.4868C98.8474 65.495 100.256 66.8906 101.243 68.5345C102.071 70.0941 102.488 71.8224 102.451 73.5657C102.504 75.8702 101.802 78.135 100.446 80.0521C98.9951 81.999 96.9798 83.5138 94.6426 84.4178C91.6618 85.5452 88.4594 86.0766 85.2464 85.9872C82.8776 86.0071 80.514 85.7985 78.1874 85.3565C76.2511 85.0336 74.3571 84.5072 72.5475 83.782C72.173 83.5983 71.9461 83.2357 71.9619 82.8384V74.3455C71.9408 74.1766 72.0252 74.0078 72.173 73.9134C72.3207 73.8339 72.5001 73.8488 72.6319 73.9531C74.7475 75.0656 77.032 75.8752 79.4008 76.352C81.3951 76.8238 83.4421 77.0721 85.4996 77.097C86.9716 77.1814 88.4488 76.943 89.7994 76.3917C90.6488 76.0292 91.1922 75.2246 91.1817 74.3455C91.1078 73.5409 90.6488 72.8158 89.9313 72.3787C88.3486 71.4052 86.6339 70.6354 84.8349 70.099C82.2128 69.2398 79.7279 68.0478 77.4435 66.5628C75.8133 65.495 74.4679 64.0795 73.5183 62.4355C72.6953 60.886 72.2785 59.1725 72.3049 57.4441C72.3049 55.3631 72.9063 53.3218 74.0564 51.5487C75.3701 49.5919 77.2535 48.0373 79.4905 47.0688C82.0756 45.7378 84.9826 45.0574 87.9318 45.0872C90.2795 44.9729 92.6325 45.0027 94.975 45.1815C96.8795 45.5491 98.7313 46.1302 100.488 46.9149C100.715 46.9745 100.905 47.1384 100.989 47.347C101.042 47.5407 101.074 47.7393 101.074 47.938V55.8846C101.084 56.0733 100.989 56.2521 100.821 56.3564C100.641 56.4657 100.414 56.4657 100.235 56.3564Z" fill="#31A8FF"/>
</svg>
