<svg width="799" height="158" viewBox="0 0 799 158" fill="none" xmlns="http://www.w3.org/2000/svg">
<g filter="url(#filter0_f_106_905)">
<path d="M734.897 137.07C709.859 137.07 691.022 114.957 691.022 78.535C691.022 42.1132 709.859 20 734.897 20C759.935 20 778.772 42.1132 778.772 78.535C778.772 114.957 759.935 137.07 734.897 137.07ZM743.321 132.842C747.884 132.842 749.873 126.339 749.873 113.168C749.873 85.0389 740.396 24.2275 726.59 24.2275C722.027 24.2275 720.038 30.7314 720.038 43.9018C720.038 72.0311 729.515 132.842 743.321 132.842Z" fill="#FFD1BE" fill-opacity="0.8"/>
<path d="M650.589 135.444C652.461 129.103 652.695 119.997 652.695 105.038V52.0317C652.695 37.0727 652.461 27.9673 650.589 21.626H682.296C680.424 27.9673 680.19 37.0727 680.19 52.0317V105.038C680.19 119.997 680.424 129.103 682.296 135.444H650.589Z" fill="#FFD1BE" fill-opacity="0.8"/>
<path d="M565.81 135.444C567.682 129.103 567.916 119.997 567.916 105.038V52.0317C567.916 37.0727 567.682 27.9673 565.81 21.626H599.857C595.645 28.1299 595.411 40.3247 595.411 60.1615V105.038C595.411 119.672 595.411 131.379 603.718 131.379C612.727 131.379 624.427 116.258 641.275 75.6083L640.104 135.444H565.81Z" fill="#FFD1BE" fill-opacity="0.8"/>
<path d="M513.123 137.07C488.085 137.07 469.248 114.957 469.248 78.535C469.248 42.1132 488.085 20 513.123 20C538.161 20 556.998 42.1132 556.998 78.535C556.998 114.957 538.161 137.07 513.123 137.07ZM521.547 132.842C526.11 132.842 528.099 126.339 528.099 113.168C528.099 85.0389 518.622 24.2275 504.816 24.2275C500.253 24.2275 498.264 30.7314 498.264 43.9018C498.264 72.0311 507.741 132.842 521.547 132.842Z" fill="#FFD1BE" fill-opacity="0.8"/>
<path d="M385.625 135.444C387.497 129.103 387.731 119.997 387.731 105.038V52.0317C387.731 37.0727 387.497 27.9673 385.625 21.626H462.845C461.675 33.6582 450.911 67.3158 443.423 76.7464C442.136 78.3724 440.849 78.6976 437.807 78.0472L415.226 73.4945V105.038C415.226 119.997 415.694 129.103 419.672 135.444H385.625ZM417.8 26.0161H415.226V69.267H443.891C446.348 69.267 447.167 67.1532 447.167 64.2265C447.167 49.1049 439.796 26.0161 417.8 26.0161Z" fill="#FFD1BE" fill-opacity="0.8"/>
<path d="M322.273 135.444C325.315 129.103 325.549 119.997 325.549 105.038V24.8779L297.82 27.1543V21.626H378.55V27.1543L353.044 24.8779V105.038C353.044 119.997 353.278 129.103 356.32 135.444H322.273Z" fill="#FFD1BE" fill-opacity="0.8"/>
<path d="M206.012 135.444C207.884 129.103 208.118 119.997 208.118 105.038V52.0317C208.118 36.5849 207.884 27.9673 206.012 21.626H245.324C275.042 21.626 287.21 36.7475 287.21 59.6737C287.21 74.7953 281.711 85.5267 273.404 91.868L280.307 108.616C286.391 123.412 290.486 129.753 294.347 135.444H262.64L248.834 99.6727H241.463C236.783 99.6727 235.496 102.925 235.496 108.778C235.496 121.461 235.847 129.591 237.602 135.444H206.012ZM244.388 96.5833C256.556 96.5833 258.779 86.1771 258.779 71.7059C258.779 45.3652 251.642 25.0405 241.58 25.0405C237.017 25.0405 235.613 28.9429 235.613 34.7964V86.5023C235.613 95.7703 240.527 96.5833 244.388 96.5833Z" fill="#FFD1BE" fill-opacity="0.8"/>
<path d="M153.325 137.07C128.287 137.07 109.45 114.957 109.45 78.535C109.45 42.1132 128.287 20 153.325 20C178.363 20 197.2 42.1132 197.2 78.535C197.2 114.957 178.363 137.07 153.325 137.07ZM161.749 132.842C166.312 132.842 168.301 126.339 168.301 113.168C168.301 85.0389 158.824 24.2275 145.018 24.2275C140.455 24.2275 138.466 30.7314 138.466 43.9018C138.466 72.0311 147.943 132.842 161.749 132.842Z" fill="#FFD1BE" fill-opacity="0.8"/>
<path d="M20 135.444C21.872 129.103 22.106 119.997 22.106 105.038V52.0317C22.106 36.5849 21.872 27.9673 20 21.626H59.312C89.03 21.626 101.315 35.1216 101.315 58.8608C101.315 88.6161 81.659 99.6727 55.451 99.6727C50.771 99.6727 49.484 102.925 49.484 108.778C49.484 121.461 49.835 129.591 51.59 135.444H20ZM58.376 96.5833C71.129 96.5833 73.235 86.0145 73.235 71.5433C73.235 45.2026 65.63 25.0405 55.568 25.0405C51.005 25.0405 49.601 28.9429 49.601 34.7964V86.5023C49.601 95.7703 54.515 96.5833 58.376 96.5833Z" fill="#FFD1BE" fill-opacity="0.8"/>
</g>
<path d="M734.897 137.07C709.859 137.07 691.022 114.957 691.022 78.535C691.022 42.1132 709.859 20 734.897 20C759.935 20 778.772 42.1132 778.772 78.535C778.772 114.957 759.935 137.07 734.897 137.07ZM743.321 132.842C747.884 132.842 749.873 126.339 749.873 113.168C749.873 85.0389 740.396 24.2275 726.59 24.2275C722.027 24.2275 720.038 30.7314 720.038 43.9018C720.038 72.0311 729.515 132.842 743.321 132.842Z" fill="#FF9B71"/>
<path d="M650.589 135.444C652.461 129.103 652.695 119.997 652.695 105.038V52.0317C652.695 37.0727 652.461 27.9673 650.589 21.626H682.296C680.424 27.9673 680.19 37.0727 680.19 52.0317V105.038C680.19 119.997 680.424 129.103 682.296 135.444H650.589Z" fill="#FF9B71"/>
<path d="M565.81 135.444C567.682 129.103 567.916 119.997 567.916 105.038V52.0317C567.916 37.0727 567.682 27.9673 565.81 21.626H599.857C595.645 28.1299 595.411 40.3247 595.411 60.1615V105.038C595.411 119.672 595.411 131.379 603.718 131.379C612.727 131.379 624.427 116.258 641.275 75.6083L640.104 135.444H565.81Z" fill="#FF9B71"/>
<path d="M513.123 137.07C488.085 137.07 469.248 114.957 469.248 78.535C469.248 42.1132 488.085 20 513.123 20C538.161 20 556.998 42.1132 556.998 78.535C556.998 114.957 538.161 137.07 513.123 137.07ZM521.547 132.842C526.11 132.842 528.099 126.339 528.099 113.168C528.099 85.0389 518.622 24.2275 504.816 24.2275C500.253 24.2275 498.264 30.7314 498.264 43.9018C498.264 72.0311 507.741 132.842 521.547 132.842Z" fill="#FF9B71"/>
<path d="M385.625 135.444C387.497 129.103 387.731 119.997 387.731 105.038V52.0317C387.731 37.0727 387.497 27.9673 385.625 21.626H462.845C461.675 33.6582 450.911 67.3158 443.423 76.7464C442.136 78.3724 440.849 78.6976 437.807 78.0472L415.226 73.4945V105.038C415.226 119.997 415.694 129.103 419.672 135.444H385.625ZM417.8 26.0161H415.226V69.267H443.891C446.348 69.267 447.167 67.1532 447.167 64.2265C447.167 49.1049 439.796 26.0161 417.8 26.0161Z" fill="#FF9B71"/>
<path d="M322.273 135.444C325.315 129.103 325.549 119.997 325.549 105.038V24.8779L297.82 27.1543V21.626H378.55V27.1543L353.044 24.8779V105.038C353.044 119.997 353.278 129.103 356.32 135.444H322.273Z" fill="#FF9B71"/>
<path d="M206.012 135.444C207.884 129.103 208.118 119.997 208.118 105.038V52.0317C208.118 36.5849 207.884 27.9673 206.012 21.626H245.324C275.042 21.626 287.21 36.7475 287.21 59.6737C287.21 74.7953 281.711 85.5267 273.404 91.868L280.307 108.616C286.391 123.412 290.486 129.753 294.347 135.444H262.64L248.834 99.6727H241.463C236.783 99.6727 235.496 102.925 235.496 108.778C235.496 121.461 235.847 129.591 237.602 135.444H206.012ZM244.388 96.5833C256.556 96.5833 258.779 86.1771 258.779 71.7059C258.779 45.3652 251.642 25.0405 241.58 25.0405C237.017 25.0405 235.613 28.9429 235.613 34.7964V86.5023C235.613 95.7703 240.527 96.5833 244.388 96.5833Z" fill="#FF9B71"/>
<path d="M153.325 137.07C128.287 137.07 109.45 114.957 109.45 78.535C109.45 42.1132 128.287 20 153.325 20C178.363 20 197.2 42.1132 197.2 78.535C197.2 114.957 178.363 137.07 153.325 137.07ZM161.749 132.842C166.312 132.842 168.301 126.339 168.301 113.168C168.301 85.0389 158.824 24.2275 145.018 24.2275C140.455 24.2275 138.466 30.7314 138.466 43.9018C138.466 72.0311 147.943 132.842 161.749 132.842Z" fill="#FF9B71"/>
<path d="M20 135.444C21.872 129.103 22.106 119.997 22.106 105.038V52.0317C22.106 36.5849 21.872 27.9673 20 21.626H59.312C89.03 21.626 101.315 35.1216 101.315 58.8608C101.315 88.6161 81.659 99.6727 55.451 99.6727C50.771 99.6727 49.484 102.925 49.484 108.778C49.484 121.461 49.835 129.591 51.59 135.444H20ZM58.376 96.5833C71.129 96.5833 73.235 86.0145 73.235 71.5433C73.235 45.2026 65.63 25.0405 55.568 25.0405C51.005 25.0405 49.601 28.9429 49.601 34.7964V86.5023C49.601 95.7703 54.515 96.5833 58.376 96.5833Z" fill="#FF9B71"/>
<defs>
<filter id="filter0_f_106_905" x="0" y="0" width="798.772" height="157.07" filterUnits="userSpaceOnUse" color-interpolation-filters="sRGB">
<feFlood flood-opacity="0" result="BackgroundImageFix"/>
<feBlend mode="normal" in="SourceGraphic" in2="BackgroundImageFix" result="shape"/>
<feGaussianBlur stdDeviation="10" result="effect1_foregroundBlur_106_905"/>
</filter>
</defs>
</svg>
