<svg width="429" height="252" viewBox="0 0 429 252" fill="none" xmlns="http://www.w3.org/2000/svg">
<path d="M362.35 251.46C324.401 251.46 295.85 227.471 295.85 187.96C295.85 148.449 324.401 124.46 362.35 124.46C400.299 124.46 428.85 148.449 428.85 187.96C428.85 227.471 400.299 251.46 362.35 251.46ZM375.118 246.874C382.034 246.874 385.049 239.818 385.049 225.531C385.049 195.016 370.685 129.046 349.759 129.046C342.843 129.046 339.829 136.102 339.829 150.389C339.829 180.904 354.193 246.874 375.118 246.874Z" fill="#E85008"/>
<path d="M154.85 250.46C157.677 243.496 158.031 233.496 158.031 217.067V158.853C158.031 142.424 157.677 132.424 154.85 125.46H210.161C262.645 125.46 283.85 149.21 283.85 184.567C283.85 228.853 250.982 250.46 205.036 250.46H154.85ZM214.402 246.353C232.957 246.353 240.025 234.567 240.025 205.281C240.025 172.96 231.543 129.389 205.566 129.389C203.269 129.389 199.558 129.746 199.558 132.96V233.674C199.558 244.389 206.98 246.353 214.402 246.353Z" fill="#E85008"/>
<path d="M34.85 249.46C37.6839 242.496 38.0382 232.496 38.0382 216.067V157.853C38.0382 141.424 37.6839 131.424 34.85 124.46H82.85C80.016 131.424 79.6618 141.424 79.6618 157.853V216.067C79.6618 232.496 80.016 242.496 82.85 249.46H34.85Z" fill="#E85008"/>
<path d="M367.897 89.46C371.173 84.546 371.425 77.49 371.425 65.898V3.78001L341.563 5.54401V1.26001H428.503V5.54401L401.035 3.78001V65.898C401.035 77.49 401.287 84.546 404.563 89.46H367.897Z" fill="#E85008"/>
<path d="M252 89.46C254.772 84.798 259.056 75.726 267.876 50.274L280.224 14.868C281.484 11.34 281.988 4.78801 281.106 1.26001H314.37L332.136 50.274C341.334 75.726 344.736 86.058 348.39 89.46H306.558C309.456 82.278 307.566 74.34 304.92 66.906L303.282 62.118H266.994L265.356 66.906C262.458 75.726 261.702 84.798 266.868 89.46H252ZM282.618 14.994L267.876 59.22H302.274L288.036 18.648C286.776 15.12 285.768 12.222 284.508 12.222C283.752 12.222 283.374 12.852 282.618 14.994Z" fill="#E85008"/>
<path d="M151.884 89.46C153.9 84.546 154.152 77.49 154.152 65.898V24.822C154.152 13.23 153.9 6.17401 151.884 1.26001H186.03C184.014 6.17401 183.762 13.23 183.762 24.822V44.478C183.762 51.156 187.794 54.306 194.22 52.668L203.796 50.148C209.214 48.762 211.986 45.234 211.986 39.69V24.822C211.986 13.23 211.734 6.17401 209.718 1.26001H243.864C241.848 6.17401 241.596 13.23 241.596 24.822V65.898C241.596 77.49 241.848 84.546 243.864 89.46H209.718C211.734 84.546 211.986 77.49 211.986 65.898V61.362C211.986 54.684 207.954 51.534 201.528 53.172L191.952 55.692C186.534 57.078 183.762 60.354 183.762 65.898C183.762 77.49 184.014 84.546 186.03 89.46H151.884Z" fill="#E85008"/>
<path d="M27.468 90.72L9.072 29.61C5.04 16.38 2.772 9.072 0 6.174L33.264 0.504002L55.188 72.45C56.322 76.356 57.96 77.364 60.102 77.364C63.126 77.364 67.158 75.474 71.064 72.072L58.212 29.61C54.18 16.38 51.912 9.072 49.14 6.174L82.404 0.504002L104.328 72.45C105.462 76.356 107.1 77.364 109.242 77.364C116.802 77.364 131.04 64.89 131.04 50.4C131.04 29.988 102.816 34.776 102.816 15.372C102.816 5.166 110.502 0 119.952 0C135.324 0 142.38 13.86 142.38 30.744C142.38 59.472 122.22 86.94 76.608 90.72L71.946 75.096C61.362 83.412 46.62 89.082 27.468 90.72Z" fill="#E85008"/>
</svg>
