<svg width="415" height="276" viewBox="0 0 415 276" fill="none" xmlns="http://www.w3.org/2000/svg">
<path d="M330.836 276L278.192 165.988V198.316C278.192 250.105 292.715 259.671 300.471 264.455H266.64C274.892 242.683 275.057 215.634 275.057 198.316C275.057 158.731 267.796 151.969 264 149H314.003L346.349 221.407L372.093 149H415C412.36 155.432 412.03 164.669 412.03 179.843V233.612C412.03 248.786 412.36 258.022 415 264.455H365.327C372.753 258.022 373.248 248.786 373.248 233.612V156.422L330.836 276Z" fill="#E85008"/>
<path d="M127 265C130.624 258.869 136.224 246.937 147.753 213.463L163.894 166.897C165.541 162.257 166.2 153.64 165.047 149H208.529L231.753 213.463C243.776 246.937 248.224 260.526 253 265H198.318C202.106 255.554 199.635 245.114 196.176 235.337L194.035 229.04H146.6L144.459 235.337C140.671 246.937 139.682 258.869 146.435 265H127ZM167.024 167.063L147.753 225.229H192.718L174.106 171.869C172.459 167.229 171.141 163.417 169.494 163.417C168.506 163.417 168.012 164.246 167.024 167.063Z" fill="#E85008"/>
<path d="M37 265C39.7159 258.537 40.0554 249.257 40.0554 234.011V179.989C40.0554 164.743 39.7159 155.463 37 149H83C80.2841 155.463 79.9447 164.743 79.9447 179.989V234.011C79.9447 249.257 80.2841 258.537 83 265H37Z" fill="#E85008"/>
<path d="M358.5 108C326.257 108 302 87.6 302 54C302 20.4 326.257 0 358.5 0C390.743 0 415 20.4 415 54C415 87.6 390.743 108 358.5 108ZM369.348 104.1C375.224 104.1 377.785 98.1 377.785 85.95C377.785 60 365.581 3.9 347.803 3.9C341.927 3.9 339.365 9.9 339.365 22.05C339.365 48 351.569 104.1 369.348 104.1Z" fill="#E85008"/>
<path d="M181 107C183.389 101.206 183.688 92.8857 183.688 79.2171V30.7829C183.688 17.1143 183.389 8.79429 181 3H221.464C219.075 8.79429 218.777 17.1143 218.777 30.7829V53.96C218.777 61.8343 223.555 65.5486 231.17 63.6171L242.518 60.6457C248.938 59.0114 252.223 54.8514 252.223 48.3143V30.7829C252.223 17.1143 251.925 8.79429 249.536 3H290C287.611 8.79429 287.312 17.1143 287.312 30.7829V79.2171C287.312 92.8857 287.611 101.206 290 107H249.536C251.925 101.206 252.223 92.8857 252.223 79.2171V73.8686C252.223 65.9943 247.445 62.28 239.83 64.2114L228.482 67.1829C222.062 68.8171 218.777 72.68 218.777 79.2171C218.777 92.8857 219.075 101.206 221.464 107H181Z" fill="#E85008"/>
<path d="M32.7965 108L10.8319 35.25C6.0177 19.5 3.30973 10.8 0 7.35L39.7168 0.6L65.8938 86.25C67.2478 90.9 69.2035 92.1 71.7611 92.1C75.3717 92.1 80.1858 89.85 84.8495 85.8L69.5044 35.25C64.6903 19.5 61.9823 10.8 58.6726 7.35L98.3894 0.6L124.566 86.25C125.92 90.9 127.876 92.1 130.434 92.1C139.46 92.1 156.46 77.25 156.46 60C156.46 35.7 122.761 41.4 122.761 18.3C122.761 6.15 131.938 0 143.221 0C161.575 0 170 16.5 170 36.6C170 70.8 145.929 103.5 91.469 108L85.9026 89.4C73.2655 99.3 55.6637 106.05 32.7965 108Z" fill="#E85008"/>
</svg>
